<?xml version="1.0" ?><svg height="512" id="svg2" version="1.1" width="512" xmlns="http://www.w3.org/2000/svg" xmlns:cc="http://creativecommons.org/ns#" xmlns:dc="http://purl.org/dc/elements/1.1/" xmlns:inkscape="http://www.inkscape.org/namespaces/inkscape" xmlns:rdf="http://www.w3.org/1999/02/22-rdf-syntax-ns#" xmlns:sodipodi="http://sodipodi.sourceforge.net/DTD/sodipodi-0.dtd" xmlns:svg="http://www.w3.org/2000/svg"><defs id="defs4"/><g id="layer1" transform="translate(0,-540.36218)"><g id="g4305"><g id="g4345" transform="translate(28,-40.00001)"><path d="M 255.34375 15.96875 C 214.76377 16.039919 173.66554 26.410038 136 48.15625 C 21.20977 114.43042 -18.117917 261.20978 48.15625 376 C 114.43042 490.79022 261.20977 530.11792 376 463.84375 C 490.79023 397.56958 530.11792 250.79022 463.84375 136 C 419.31579 58.875319 338.43608 15.823022 255.34375 15.96875 z M 342.84375 43.0625 C 371.67389 54.79845 396.92102 71.79385 417.84375 92.53125 L 334.21875 177.1875 C 324.15411 167.18935 311.99295 158.99003 298.125 153.3125 L 342.84375 43.0625 z M 256 154.96875 C 311.65643 154.96875 356.96875 200.21174 356.96875 256 C 356.96875 311.78826 311.65643 357.0625 256 357.0625 C 200.34357 357.0625 155.03125 311.78826 155.03125 256 C 155.03125 200.21174 200.34357 154.96875 256 154.96875 z M 256 165.0625 C 205.61775 165.0625 164.96875 205.74958 164.96875 256 C 164.96875 306.25041 205.61775 346.96875 256 346.96875 C 306.38225 346.96875 347.03125 306.25041 347.03125 256 C 347.03125 205.74958 306.38225 165.0625 256 165.0625 z M 256 224 C 273.67311 224 288 238.32689 288 256 C 288 273.67311 273.67311 288 256 288 C 238.32689 288 224 273.67311 224 256 C 224 238.32689 238.32689 224 256 224 z M 174 381 C 179.93259 381.00007 185.32222 381.66747 190.15625 383 C 194.99018 384.33267 199.1269 386.44594 202.59375 389.3125 C 206.06048 392.17917 208.72703 395.8458 210.59375 400.3125 C 212.46034 404.7793 213.40618 410.13798 213.40625 416.40625 C 213.40618 422.40602 212.46034 427.62705 210.59375 432.09375 C 208.72703 436.56055 206.08942 440.2548 202.65625 443.1875 C 199.22297 446.1203 195.02737 448.3456 190.09375 449.8125 C 185.16003 451.2793 179.63399 452 173.5 452 C 170.70049 452 167.4208 451.88915 163.6875 451.65625 C 159.95417 451.42325 156.28857 450.922 152.6875 450.1875 L 152.6875 382.6875 C 156.28857 382.02025 160.03734 381.57677 163.9375 381.34375 C 167.83763 381.11087 171.2005 381.00007 174 381 z M 319.90625 381 C 325.83883 381.00007 331.22848 381.66747 336.0625 383 C 340.89644 384.33267 345.03314 386.44594 348.5 389.3125 C 351.96673 392.17917 354.63328 395.8458 356.5 400.3125 C 358.36659 404.7793 359.31243 410.13798 359.3125 416.40625 C 359.31243 422.40602 358.36659 427.62705 356.5 432.09375 C 354.63328 436.56055 351.99567 440.2548 348.5625 443.1875 C 345.12922 446.1203 340.93362 448.3456 336 449.8125 C 331.06628 451.2793 325.54025 452 319.40625 452 C 316.60675 452 313.32704 451.88915 309.59375 451.65625 C 305.86042 451.42325 302.19481 450.922 298.59375 450.1875 L 298.59375 382.6875 C 302.19481 382.02025 305.94359 381.57677 309.84375 381.34375 C 313.74388 381.11087 317.10675 381.00007 319.90625 381 z M 219.34375 381.8125 L 236.53125 381.8125 C 237.86383 385.8124 239.30841 390.11648 240.875 394.75 C 242.44154 399.38364 244.05377 403.99379 245.6875 408.59375 C 247.32118 413.19381 248.90447 417.6133 250.4375 421.8125 C 251.97047 426.0117 253.41533 429.6195 254.75 432.6875 C 256.01542 429.6195 257.40215 426.0117 258.96875 421.8125 C 260.53528 417.6133 262.1475 413.19381 263.78125 408.59375 C 265.41491 403.99379 267.02714 399.38364 268.59375 394.75 C 270.16027 390.11648 271.60484 385.8124 272.9375 381.8125 L 289.53125 381.8125 C 287.99716 386.21116 286.2186 391.21259 284.21875 396.8125 C 282.21876 402.41253 280.02464 408.27226 277.625 414.40625 C 275.22525 420.54028 272.69843 426.7338 270.03125 433 C 267.36396 439.2663 264.6698 445.29335 261.9375 451.09375 L 246.9375 451.09375 C 244.2031 445.29335 241.50995 439.2663 238.84375 433 C 236.17752 426.7338 233.61945 420.54028 231.21875 414.40625 C 228.81802 408.27226 226.62621 402.41253 224.59375 396.8125 C 222.56127 391.21259 220.81062 386.21116 219.34375 381.8125 z M 174.8125 394.3125 C 173.74639 394.31255 172.6332 394.31025 171.5 394.34375 C 170.36676 394.37735 169.31345 394.46156 168.3125 394.59375 L 168.3125 438.40625 C 169.04693 438.47325 169.87733 438.5289 170.84375 438.5625 C 171.81011 438.5965 172.97987 438.59375 174.3125 438.59375 C 182.11275 438.59375 187.88933 436.6213 191.65625 432.6875 C 195.42309 428.7538 197.31245 423.33782 197.3125 416.40625 C 197.31245 409.13904 195.50626 403.63962 191.90625 399.90625 C 188.30615 396.17299 182.61276 394.31255 174.8125 394.3125 z M 320.6875 394.3125 C 319.62139 394.31255 318.53944 394.31025 317.40625 394.34375 C 316.27301 394.37735 315.18845 394.46156 314.1875 394.59375 L 314.1875 438.40625 C 314.92193 438.47325 315.78358 438.5289 316.75 438.5625 C 317.71636 438.5965 318.85487 438.59375 320.1875 438.59375 C 327.98776 438.59375 333.79557 436.6213 337.5625 432.6875 C 341.32934 428.7538 343.18745 423.33782 343.1875 416.40625 C 343.18745 409.13904 341.4125 403.63962 337.8125 399.90625 C 334.2124 396.17299 328.48776 394.31255 320.6875 394.3125 z " id="path3847" style="color:#000000;fill:#222222;fill-opacity:1;fill-rule:nonzero;stroke:none;stroke-width:40;marker:none;visibility:visible;display:inline;overflow:visible;enable-background:accumulate" transform="translate(-28,580.36219)"/><g id="text4109" style="font-size:550px;font-style:normal;font-variant:normal;font-weight:normal;font-stretch:normal;text-align:start;line-height:125%;letter-spacing:0px;word-spacing:0px;writing-mode:lr-tb;text-anchor:start;fill:#ffffff;fill-opacity:1;stroke:none;font-family:Ubuntu;-inkscape-font-specification:Ubuntu"/></g></g></g></svg>